<svg xmlns="http://www.w3.org/2000/svg" xmlns:xlink="http://www.w3.org/1999/xlink" width="500" zoomAndPan="magnify" viewBox="0 0 375 374.999991" height="500" preserveAspectRatio="xMidYMid meet" version="1.0"><path fill="#ffffff" d="M 218.742188 137.328125 C 211.347656 137.328125 205.351562 143.324219 205.351562 150.71875 L 205.351562 245.339844 C 205.351562 252.734375 211.347656 258.726562 218.742188 258.726562 C 226.136719 258.726562 232.132812 252.734375 232.132812 245.339844 L 232.132812 150.71875 C 232.132812 143.324219 226.136719 137.328125 218.742188 137.328125 Z M 218.742188 137.328125 " fill-opacity="1" fill-rule="nonzero"/><path fill="#ffffff" d="M 187.5 0 C 83.945312 0 0 83.945312 0 187.5 C 0 291.054688 83.945312 375 187.5 375 C 291.054688 375 375 291.054688 375 187.5 C 375 83.945312 291.054688 0 187.5 0 Z M 267.835938 119.476562 L 267.835938 267.652344 C 267.835938 282.445312 255.847656 294.433594 241.058594 294.433594 L 133.941406 294.433594 C 119.152344 294.433594 107.164062 282.441406 107.164062 267.652344 L 107.164062 119.476562 C 97.304688 119.476562 89.3125 111.484375 89.3125 101.625 C 89.3125 91.761719 97.304688 83.769531 107.164062 83.769531 L 143.636719 83.769531 C 146.003906 83.769531 148.273438 82.832031 149.945312 81.15625 L 162.570312 68.53125 C 164.246094 66.859375 166.515625 65.917969 168.882812 65.917969 L 206.121094 65.917969 C 208.488281 65.917969 210.757812 66.859375 212.433594 68.53125 L 225.054688 81.15625 C 226.730469 82.832031 229 83.769531 231.367188 83.769531 L 267.839844 83.769531 C 277.699219 83.769531 285.691406 91.761719 285.691406 101.625 C 285.691406 111.484375 277.695312 119.476562 267.835938 119.476562 Z M 267.835938 119.476562 " fill-opacity="1" fill-rule="nonzero"/><path fill="#ffffff" d="M 156.257812 137.328125 C 148.863281 137.328125 142.867188 143.324219 142.867188 150.71875 L 142.867188 245.339844 C 142.867188 252.734375 148.863281 258.726562 156.257812 258.726562 C 163.652344 258.726562 169.648438 252.734375 169.648438 245.339844 L 169.648438 150.71875 C 169.648438 143.324219 163.652344 137.328125 156.257812 137.328125 Z M 156.257812 137.328125 " fill-opacity="1" fill-rule="nonzero"/></svg>