<svg xmlns="http://www.w3.org/2000/svg" xmlns:xlink="http://www.w3.org/1999/xlink" width="500" zoomAndPan="magnify" viewBox="0 0 375 374.999991" height="500" preserveAspectRatio="xMidYMid meet" version="1.0"><path fill="#ffffff" d="M 375 187.5 C 375 291.054688 291.054688 375 187.5 375 C 83.945312 375 0 291.054688 0 187.5 C 0 83.945312 83.945312 0 187.5 0 C 291.054688 0 375 83.945312 375 187.5 Z M 114.773438 123.863281 C 109.753906 123.863281 105.683594 127.933594 105.683594 132.953125 L 105.683594 260.226562 C 105.683594 265.246094 109.753906 269.320312 114.773438 269.320312 L 242.046875 269.320312 C 247.066406 269.320312 251.136719 265.246094 251.136719 260.226562 L 251.136719 164.773438 L 269.316406 164.773438 L 269.316406 260.226562 C 269.316406 275.289062 257.109375 287.5 242.046875 287.5 L 114.773438 287.5 C 99.710938 287.5 87.5 275.289062 87.5 260.226562 L 87.5 132.953125 C 87.5 117.890625 99.710938 105.683594 114.773438 105.683594 L 210.226562 105.683594 L 210.226562 123.863281 Z M 253.796875 90.164062 C 257.347656 86.613281 263.105469 86.613281 266.65625 90.164062 L 284.835938 108.34375 C 288.386719 111.894531 288.386719 117.652344 284.835938 121.203125 L 212.109375 193.929688 C 211.113281 194.925781 209.894531 195.675781 208.554688 196.125 L 181.285156 205.214844 C 178.015625 206.304688 174.417969 205.453125 171.980469 203.019531 C 169.546875 200.582031 168.695312 196.984375 169.785156 193.714844 L 178.875 166.445312 C 179.324219 165.105469 180.074219 163.886719 181.070312 162.890625 Z M 253.796875 90.164062 " fill-opacity="1" fill-rule="evenodd"/></svg>