<svg xmlns="http://www.w3.org/2000/svg" xmlns:xlink="http://www.w3.org/1999/xlink" width="500" zoomAndPan="magnify" viewBox="0 0 375 374.999991" height="500" preserveAspectRatio="xMidYMid meet" version="1.0"><path fill="#ffffff" d="M 187.5 0 C 83.945312 0 0 83.945312 0 187.5 C 0 291.054688 83.945312 375 187.5 375 C 291.054688 375 375 291.054688 375 187.5 C 375 83.945312 291.054688 0 187.5 0 Z M 187.5 65.917969 C 214.613281 65.917969 236.59375 91.894531 236.59375 123.941406 C 236.59375 155.984375 214.613281 181.960938 187.5 181.960938 C 160.386719 181.960938 138.40625 155.984375 138.40625 123.941406 C 138.40625 91.894531 160.386719 65.917969 187.5 65.917969 Z M 270.601562 294.433594 L 104.398438 294.433594 C 96.066406 294.433594 89.308594 287.675781 89.308594 279.34375 C 89.308594 240.351562 133.269531 208.738281 187.5 208.738281 C 241.730469 208.738281 285.691406 240.351562 285.691406 279.34375 C 285.691406 287.675781 278.933594 294.433594 270.601562 294.433594 Z M 270.601562 294.433594 " fill-opacity="1" fill-rule="nonzero"/></svg>